# xmcd
#
# Track frame offsets:
# 150
# 16675
# 37352
# 61660
# 72712
# 90402
# 108717
# 128522
# 131630
# 148302
# 166910
# 184672
# 203422
# 231050
#
# Disc length: 3174 seconds
#
#
# Revision: 1
# Processed by: cddbd v1.5.1PL2 Copyright (c) Steve Scherf et al.
# Submitted via: FreeRIP 2.945 
#
DISCID=c10c640e
DTITLE=Mighty Mo Rodgers - Red, White And Blues
DYEAR=2002
DGENRE=SoulBlues
TTITLE0=Red, White And Blues
TTITLE1=The Holy Howl
TTITLE2=The Boy Who Stole The Blues
TTITLE3=The Boogie Man
TTITLE4=BLue Collar Blues
TTITLE5=DNA
TTITLE6=Prisoners Of War
TTITLE7=Children At Play
TTITLE8=Have You Seen The American Dream
TTITLE9=We Be Marchin'
TTITLE10=Happy As A Runaway Slave
TTITLE11=I Do This For The Dead
TTITLE12=Welcome To The Faultline
TTITLE13=Cadillac To Go
EXTD=
EXTT0=
EXTT1=
EXTT2=
EXTT3=
EXTT4=
EXTT5=
EXTT6=
EXTT7=
EXTT8=
EXTT9=
EXTT10=
EXTT11=
EXTT12=
EXTT13=
PLAYORDER=
